<?xml version="1.0" encoding="UTF-8" standalone="no"?>
<svg
   xmlns:dc="http://purl.org/dc/elements/1.1/"
   xmlns:cc="http://creativecommons.org/ns#"
   xmlns:rdf="http://www.w3.org/1999/02/22-rdf-syntax-ns#"
   xmlns:svg="http://www.w3.org/2000/svg"
   xmlns="http://www.w3.org/2000/svg"
   xmlns:sodipodi="http://sodipodi.sourceforge.net/DTD/sodipodi-0.dtd"
   xmlns:inkscape="http://www.inkscape.org/namespaces/inkscape"
   id="fork"
   version="1.1"
   viewBox="0 0 27.981138 28.081139"
   xml:space="preserve"
   sodipodi:docname="fork.svg"
   width="27.981138"
   height="28.081139"
   inkscape:version="0.92.3 (2405546, 2018-03-11)"><metadata
     id="metadata9"><rdf:RDF><cc:Work
         rdf:about=""><dc:format>image/svg+xml</dc:format><dc:type
           rdf:resource="http://purl.org/dc/dcmitype/StillImage" /><dc:title></dc:title></cc:Work></rdf:RDF></metadata><defs
     id="defs7" /><sodipodi:namedview
     pagecolor="#ffffff"
     bordercolor="#666666"
     borderopacity="1"
     objecttolerance="10"
     gridtolerance="10"
     guidetolerance="10"
     inkscape:pageopacity="0"
     inkscape:pageshadow="2"
     inkscape:window-width="1366"
     inkscape:window-height="721"
     id="namedview5"
     showgrid="false"
     inkscape:snap-global="false"
     fit-margin-top="0"
     fit-margin-left="0"
     fit-margin-right="0"
     fit-margin-bottom="0"
     inkscape:zoom="14.75"
     inkscape:cx="16.278763"
     inkscape:cy="12.05636"
     inkscape:window-x="0"
     inkscape:window-y="0"
     inkscape:window-maximized="1"
     inkscape:current-layer="fork" /><path
     d="m 27.8,7.5811388 c -0.3,-0.4 -0.8,-0.6 -1.2,-0.4 l -4.5,1.9 1.8,-3.5 c 0.2,-0.4 0.1,-0.9 -0.2,-1.2 -0.3,-0.3 -0.8,-0.4 -1.2,-0.2 l -3.5,1.8 1.8,-4.6 c 0.2,-0.39999997 0,-0.89999997 -0.4,-1.19999997 -0.4,-0.3 -0.9,-0.2 -1.3,0.1 l -7,6.99999997 c -1.8,1.8 -2,4.5000002 -0.7,6.5000002 l -10.5,9.2 c -0.6,0.5 -0.9,1.3 -0.9,2.1 0,0.8 0.3,1.6 0.9,2.1 0.5,0.6 1.3,0.9 2.1,0.9 0.8,0 1.6,-0.3 2.2,-0.9 l 9.1,-10.7 c 0.9,0.6 1.8,0.8 2.8,0.8 1.3,0 2.6,-0.5 3.6,-1.5 l 7,-7.0000002 c 0.3,-0.3 0.4,-0.8 0.1,-1.2 z M 3.7,25.781139 c -0.4,0.4 -1,0.4 -1.4,0 -0.2,-0.2 -0.3,-0.4 -0.3,-0.7 0,-0.3 0.1,-0.5 0.2,-0.7 l 9.8,-8.4 z m 15.6,-11.4 c -1.2,1.2 -3.2,1.2 -4.5,0 l -1.2,-1.2 c -1.2,-1.2 -1.2,-3.2000002 0,-4.5000002 l 3.5,-3.5 -0.9,2.1 c -0.2,0.5 -0.1,1 0.3,1.3 0.4,0.3 0.9,0.4 1.3,0.2 l 2.7,-1.4 -1.2,2.7000002 c -0.2,0.4 -0.2,1 0.1,1.3 0.3,0.4 0.9,0.5 1.3,0.3 l 2.1,-0.9 z"
     id="path2"
     inkscape:connector-curvature="0" /></svg>